<!DOCTYPE svg PUBLIC "-//W3C//DTD SVG 20010904//EN" "http://www.w3.org/TR/2001/REC-SVG-20010904/DTD/svg10.dtd">
<svg version="1.0" xmlns="http://www.w3.org/2000/svg" width="317px" height="97px" viewBox="0 0 3170 970" preserveAspectRatio="xMidYMid meet">
<g id="layer101" fill="#000000" stroke="none">
 <path d="M0 485 l0 -485 1585 0 1585 0 0 485 0 485 -1585 0 -1585 0 0 -485z"/>
 </g>
<g id="layer102" fill="#ffffff" stroke="none">
 <path d="M1680 954 c0 -4 7 -12 16 -19 16 -11 16 -15 0 -60 -19 -57 -19 -55 -7 -55 5 0 12 14 16 30 4 17 10 30 15 30 5 0 11 -13 15 -30 4 -16 11 -30 16 -30 12 0 11 6 -14 75 -14 38 -28 61 -39 63 -10 2 -18 0 -18 -4z"/>
 <path d="M92 852 c-2 -87 12 -93 39 -16 14 41 18 46 24 29 42 -109 55 -113 55 -15 0 40 -4 70 -10 70 -5 0 -10 -24 -11 -52 l-1 -53 -15 53 c-9 29 -21 51 -27 49 -6 -2 -17 -26 -26 -53 l-15 -49 -6 55 -6 55 -1 -73z"/>
 <path d="M287 913 c-17 -16 -5 -44 26 -58 l32 -15 -34 5 c-29 4 -32 3 -21 -11 8 -8 25 -14 39 -12 23 3 27 9 31 49 l6 46 -37 1 c-20 1 -39 -1 -42 -5z m48 -24 c4 -6 5 -12 2 -15 -7 -7 -37 7 -37 17 0 13 27 11 35 -2z"/>
 <path d="M430 871 c0 -45 2 -48 25 -48 28 0 33 12 10 21 -9 3 -15 19 -15 41 0 19 -4 35 -10 35 -5 0 -10 -22 -10 -49z"/>
 <path d="M550 905 c-11 -13 -8 -14 19 -9 20 4 31 3 31 -5 0 -6 -8 -11 -19 -11 -10 0 -24 -7 -31 -16 -19 -22 9 -49 44 -40 37 9 32 27 -6 19 -22 -4 -29 -3 -24 5 4 7 15 12 25 12 28 0 46 26 31 45 -16 19 -54 19 -70 0z"/>
 <path d="M856 899 c-20 -29 -12 -38 13 -15 23 21 54 18 59 -5 2 -10 -9 -18 -35 -25 -40 -10 -54 -34 -33 -59 16 -20 64 -19 80 0 17 21 7 29 -18 14 -20 -13 -52 -7 -52 10 0 6 14 14 32 19 17 4 36 16 42 25 28 45 -57 79 -88 36z"/>
 <path d="M1028 895 c-16 -36 3 -75 37 -75 45 0 68 67 31 92 -24 16 -57 8 -68 -17z m66 -10 c8 -23 -4 -45 -25 -45 -22 0 -34 22 -25 45 3 8 14 15 25 15 10 0 21 -7 25 -15z"/>
 <path d="M1192 908 c-15 -15 -15 -61 0 -76 16 -16 43 -15 58 2 10 13 7 15 -17 13 -24 -2 -28 2 -28 23 0 21 4 25 28 23 29 -2 37 11 11 21 -24 9 -39 7 -52 -6z"/>
 <path d="M1330 870 c0 -27 5 -50 10 -50 6 0 10 23 10 50 0 28 -4 50 -10 50 -5 0 -10 -22 -10 -50z"/>
 <path d="M1432 908 c-27 -27 -5 -88 31 -88 28 0 47 17 47 42 0 14 -8 18 -36 18 -23 0 -33 4 -28 11 3 6 19 9 35 5 30 -6 40 8 13 18 -25 9 -49 7 -62 -6z m58 -58 c0 -5 -9 -10 -19 -10 -11 0 -23 5 -26 10 -4 6 5 10 19 10 14 0 26 -4 26 -10z"/>
 <path d="M1590 881 c0 -22 -5 -42 -12 -44 -9 -4 -10 -8 -2 -14 6 -4 14 -15 17 -23 4 -12 6 -12 6 2 1 9 7 19 14 22 10 5 10 7 0 12 -15 7 -17 50 -3 59 15 9 12 25 -5 25 -11 0 -15 -11 -15 -39z"/>
 <path d="M1931 868 c12 -29 24 -61 26 -70 10 -34 28 -18 53 44 14 35 27 66 28 70 2 5 -2 8 -8 8 -7 0 -14 -9 -17 -20 -4 -15 -14 -20 -38 -20 -24 0 -34 5 -38 20 -3 11 -10 20 -16 20 -6 0 -2 -21 10 -52z m59 -20 c0 -7 -4 -19 -9 -26 -7 -11 -10 -10 -15 3 -10 26 -7 35 9 35 8 0 15 -6 15 -12z"/>
 <path d="M2110 900 c-13 -24 -13 -80 -1 -80 6 0 11 17 13 38 2 25 8 37 18 37 10 0 16 -12 18 -37 5 -55 22 -46 22 10 0 47 -1 49 -30 50 -20 0 -33 -6 -40 -18z"/>
 <path d="M2260 905 c-11 -13 -8 -14 19 -9 20 4 31 3 31 -5 0 -6 -8 -11 -19 -11 -10 0 -24 -7 -31 -16 -19 -22 9 -49 44 -40 37 9 32 27 -6 19 -22 -4 -29 -3 -24 5 4 7 15 12 25 12 28 0 46 26 31 45 -16 19 -54 19 -70 0z"/>
 <path d="M2410 881 c0 -22 -5 -42 -12 -44 -9 -4 -10 -8 -2 -14 6 -4 14 -15 17 -23 4 -12 6 -12 6 2 1 9 7 19 14 22 10 5 10 7 0 12 -15 7 -17 50 -3 59 15 9 12 25 -5 25 -11 0 -15 -11 -15 -39z"/>
 <path d="M2500 871 c0 -45 2 -48 25 -48 28 0 33 12 10 21 -9 3 -15 19 -15 41 0 19 -4 35 -10 35 -5 0 -10 -22 -10 -49z"/>
 <path d="M2617 913 c-17 -16 -5 -44 26 -58 l32 -15 -34 5 c-29 4 -32 3 -21 -11 8 -8 25 -14 39 -12 23 3 27 9 31 49 l6 46 -37 1 c-20 1 -39 -1 -42 -5z m48 -24 c4 -6 5 -12 2 -15 -7 -7 -37 7 -37 17 0 13 27 11 35 -2z"/>
 <path d="M2760 850 c0 -40 4 -70 10 -70 6 0 10 30 10 70 0 40 -4 70 -10 70 -6 0 -10 -30 -10 -70z"/>
 <path d="M2850 870 c0 -27 5 -50 10 -50 6 0 10 23 10 50 0 28 -4 50 -10 50 -5 0 -10 -22 -10 -50z"/>
 <path d="M2947 913 c-17 -16 -5 -44 26 -58 l32 -15 -34 5 c-29 4 -32 3 -21 -11 8 -8 25 -14 39 -12 23 3 27 9 31 49 l6 46 -37 1 c-20 1 -39 -1 -42 -5z m48 -24 c4 -6 5 -12 2 -15 -7 -7 -37 7 -37 17 0 13 27 11 35 -2z"/>
 <path d="M1330 790 c0 -5 5 -10 10 -10 6 0 10 5 10 10 0 6 -4 10 -10 10 -5 0 -10 -4 -10 -10z"/>
 <path d="M2850 790 c0 -5 5 -10 10 -10 6 0 10 5 10 10 0 6 -4 10 -10 10 -5 0 -10 -4 -10 -10z"/>
 <path d="M54 707 c-2 -7 46 -161 109 -343 l113 -329 202 -3 c161 -2 204 0 208 11 2 7 -46 161 -108 343 l-113 329 -203 3 c-161 2 -204 0 -208 -11z m380 -43 c9 -8 16 -22 16 -29 0 -18 -27 -45 -45 -45 -7 0 -21 7 -29 16 -9 8 -16 22 -16 29 0 18 27 45 45 45 7 0 21 -7 29 -16z m-180 -220 c9 -8 16 -20 16 -26 0 -16 -31 -48 -46 -48 -17 0 -44 28 -44 45 0 18 27 45 45 45 7 0 21 -7 29 -16z m242 -55 c10 -17 -13 -36 -27 -22 -12 12 -4 33 11 33 5 0 12 -5 16 -11z m48 -95 c9 -8 16 -22 16 -29 0 -7 -7 -21 -16 -29 -20 -20 -38 -20 -58 0 -9 8 -16 22 -16 29 0 18 27 45 45 45 7 0 21 -7 29 -16z m-200 -97 c40 -29 -2 -80 -48 -59 -30 13 -34 46 -8 61 23 14 35 13 56 -2z"/>
 <path d="M514 707 c-2 -7 46 -161 109 -343 l113 -329 190 0 189 0 5 184 5 185 118 -187 119 -187 179 0 c135 0 181 3 184 12 3 7 -28 113 -69 236 l-74 222 159 0 c158 0 159 0 175 25 15 23 22 25 94 25 62 0 80 -4 93 -18 18 -20 23 -57 8 -66 -5 -3 -72 -15 -149 -26 -202 -29 -250 -49 -278 -117 -16 -38 -10 -81 22 -143 42 -84 133 -136 273 -156 169 -24 320 -16 406 20 16 7 43 18 58 25 31 12 57 63 57 110 0 51 -28 61 -162 61 -128 0 -116 4 -173 -62 -11 -14 -30 -18 -78 -18 -72 0 -107 18 -107 55 0 28 2 29 145 50 155 22 227 35 244 45 31 16 70 65 78 99 l9 34 163 -206 164 -207 163 0 c90 0 165 4 168 8 6 10 28 434 30 572 l1 105 -135 0 -135 0 -3 -42 -3 -43 -133 0 -133 0 -27 40 -26 40 -135 0 c-112 0 -137 -3 -141 -15 -4 -8 -1 -22 6 -30 18 -22 -2 -19 -44 6 -77 45 -401 66 -514 33 -75 -22 -99 -39 -133 -93 -19 -32 -30 -41 -33 -31 -3 8 -15 40 -25 70 l-19 55 -111 3 c-84 2 -113 -1 -116 -10 -3 -7 31 -121 75 -252 44 -132 78 -241 77 -243 -2 -1 -48 68 -102 155 -54 86 -127 201 -162 255 l-63 98 -102 -3 -103 -3 2 -235 c1 -129 -1 -228 -4 -220 -4 8 -38 116 -77 240 l-71 225 -118 3 c-91 2 -119 0 -123 -11z m2356 -347 c0 -60 -2 -110 -5 -110 -5 0 -145 207 -145 215 0 3 34 5 75 5 l75 0 0 -110z"/>
 </g>

</svg>